<svg xmlns="http://www.w3.org/2000/svg" viewBox="0 0 512 512" role="img" aria-labelledby="title desc">
  <title id="title">EstateHub logo</title>
  <desc id="desc">Blue city towers, flowing road lines, and a house roof mark.</desc>
  <rect width="512" height="512" fill="#ffffff"/>
  <defs>
    <linearGradient id="tower" x1="0" y1="0" x2="0" y2="1">
      <stop offset="0" stop-color="#1397d5"/>
      <stop offset="1" stop-color="#06244d"/>
    </linearGradient>
    <linearGradient id="glass" x1="0" y1="0" x2="1" y2="1">
      <stop offset="0" stop-color="#ffffff"/>
      <stop offset=".48" stop-color="#d8eef8"/>
      <stop offset="1" stop-color="#ffffff"/>
    </linearGradient>
  </defs>
  <path d="M235 205v-89l29-24 29 24v152h-20V116l-18 15v126z" fill="url(#tower)"/>
  <path d="M249 135l18-15v132l-18-10z" fill="url(#glass)" opacity=".92"/>
  <path d="M333 271V201l31-25 31 25v115h-21V202l-18 14v90z" fill="url(#tower)"/>
  <path d="M347 218l18-14v100l-18-11z" fill="url(#glass)" opacity=".92"/>
  <path d="M165 254v-67l28-24 28 24v91h-20v-89l-17 14v62z" fill="url(#tower)"/>
  <path d="M178 204l17-14v72l-17-9z" fill="url(#glass)" opacity=".92"/>
  <path d="M58 252c97-35 181-14 269 54 45 34 84 45 130 29-48 36-105 32-162-10-75-55-138-86-237-73z" fill="#0a3a72"/>
  <path d="M45 283c118-31 199 2 288 63 51 35 97 45 146 18-46 42-116 38-176 0-82-52-154-85-258-81z" fill="#0d4f89"/>
  <path d="M72 259c83-22 161 4 244 66 49 37 92 50 140 34-48 23-94 13-148-23-83-56-150-86-236-77z" fill="#dcebf3"/>
  <path d="M64 287c95-13 166 12 252 68 61 40 108 41 149 25-50 33-106 25-164-11-84-52-142-74-237-82z" fill="#ffffff"/>
  <path d="M116 393h36v-69l38-17v54l65-46 131 78h52L256 284z" fill="#06244d"/>
  <path d="M169 391l87-59 90 59h-45l-45-30-44 30z" fill="#ffffff"/>
  <path d="M246 352h11v12h-11zM263 352h11v12h-11zM246 370h11v12h-11zM263 370h11v12h-11z" fill="#06244d"/>
</svg>
